<mxfile host="drawio-plugin" modified="2022-07-23T12:11:58.577Z" agent="5.0 (X11; Linux x86_64) AppleWebKit/537.36 (KHTML, like Gecko) Chrome/97.0.4692.45 Safari/537.36" etag="VwNxEVqrKsQLJm30RSkW" version="15.5.4" type="embed"><diagram name="Page-1" id="74e2e168-ea6b-b213-b513-2b3c1d86103e"><mxGraphModel dx="898" dy="752" grid="1" gridSize="10" guides="1" tooltips="1" connect="1" arrows="1" fold="1" page="1" pageScale="1" pageWidth="1169" pageHeight="827" background="none" math="0" shadow="0"><root><mxCell id="0"/><mxCell id="1" parent="0"/><mxCell id="mevNI_v1xBMnht_pScdI-10" style="edgeStyle=orthogonalEdgeStyle;rounded=0;orthogonalLoop=1;jettySize=auto;html=1;exitX=0.5;exitY=1;exitDx=0;exitDy=0;entryX=0.5;entryY=0;entryDx=0;entryDy=0;" parent="1" source="2" target="mevNI_v1xBMnht_pScdI-9" edge="1"><mxGeometry relative="1" as="geometry"><mxPoint x="240" y="120" as="sourcePoint"/></mxGeometry></mxCell><mxCell id="mevNI_v1xBMnht_pScdI-12" value="Yes" style="edgeStyle=orthogonalEdgeStyle;rounded=0;orthogonalLoop=1;jettySize=auto;html=1;" parent="1" source="mevNI_v1xBMnht_pScdI-9" target="mevNI_v1xBMnht_pScdI-25" edge="1"><mxGeometry relative="1" as="geometry"><mxPoint x="270" y="245" as="targetPoint"/></mxGeometry></mxCell><mxCell id="mevNI_v1xBMnht_pScdI-16" value="No" style="edgeStyle=orthogonalEdgeStyle;rounded=0;orthogonalLoop=1;jettySize=auto;html=1;" parent="1" source="mevNI_v1xBMnht_pScdI-9" target="mevNI_v1xBMnht_pScdI-15" edge="1"><mxGeometry relative="1" as="geometry"/></mxCell><mxCell id="mevNI_v1xBMnht_pScdI-9" value="Patient known?" style="rhombus;whiteSpace=wrap;html=1;" parent="1" vertex="1"><mxGeometry x="55" y="200" width="130" height="90" as="geometry"/></mxCell><mxCell id="mevNI_v1xBMnht_pScdI-19" value="No" style="edgeStyle=orthogonalEdgeStyle;rounded=0;orthogonalLoop=1;jettySize=auto;html=1;" parent="1" source="mevNI_v1xBMnht_pScdI-15" target="mevNI_v1xBMnht_pScdI-30" edge="1"><mxGeometry relative="1" as="geometry"><mxPoint x="275" y="415" as="targetPoint"/></mxGeometry></mxCell><mxCell id="mevNI_v1xBMnht_pScdI-23" value="Yes" style="edgeStyle=orthogonalEdgeStyle;rounded=0;orthogonalLoop=1;jettySize=auto;html=1;exitX=0.5;exitY=0.5;exitDx=0;exitDy=0;exitPerimeter=0;" parent="1" source="mevNI_v1xBMnht_pScdI-15" edge="1"><mxGeometry relative="1" as="geometry"><mxPoint x="120" y="540" as="targetPoint"/></mxGeometry></mxCell><mxCell id="mevNI_v1xBMnht_pScdI-15" value="admissions freeze?" style="rhombus;whiteSpace=wrap;html=1;" parent="1" vertex="1"><mxGeometry x="55" y="370" width="130" height="90" as="geometry"/></mxCell><mxCell id="mevNI_v1xBMnht_pScdI-27" value="No" style="edgeStyle=orthogonalEdgeStyle;rounded=0;orthogonalLoop=1;jettySize=auto;html=1;" parent="1" source="mevNI_v1xBMnht_pScdI-25" target="mevNI_v1xBMnht_pScdI-30" edge="1"><mxGeometry relative="1" as="geometry"><mxPoint x="335" y="385" as="targetPoint"/></mxGeometry></mxCell><mxCell id="mevNI_v1xBMnht_pScdI-29" value="Yes" style="edgeStyle=orthogonalEdgeStyle;rounded=0;orthogonalLoop=1;jettySize=auto;html=1;" parent="1" source="mevNI_v1xBMnht_pScdI-25" target="mevNI_v1xBMnht_pScdI-28" edge="1"><mxGeometry relative="1" as="geometry"/></mxCell><mxCell id="mevNI_v1xBMnht_pScdI-25" value="Problem solvable per telephone?" style="rhombus;whiteSpace=wrap;html=1;" parent="1" vertex="1"><mxGeometry x="270" y="192.5" width="130" height="105" as="geometry"/></mxCell><mxCell id="mevNI_v1xBMnht_pScdI-28" value="pass call to doctor" style="whiteSpace=wrap;html=1;" parent="1" vertex="1"><mxGeometry x="455" y="215" width="120" height="60" as="geometry"/></mxCell><mxCell id="mevNI_v1xBMnht_pScdI-30" value="Make appointment" style="rounded=1;whiteSpace=wrap;html=1;" parent="1" vertex="1"><mxGeometry x="285" y="385" width="100" height="60" as="geometry"/></mxCell><mxCell id="2" value="&lt;span&gt;Patient calls on phone&lt;/span&gt;" style="ellipse;whiteSpace=wrap;html=1;" vertex="1" parent="1"><mxGeometry x="60" y="30" width="120" height="80" as="geometry"/></mxCell><mxCell id="4" value="" style="edgeStyle=orthogonalEdgeStyle;rounded=0;orthogonalLoop=1;jettySize=auto;html=1;exitX=0.5;exitY=0;exitDx=0;exitDy=0;" edge="1" parent="1" source="3" target="mevNI_v1xBMnht_pScdI-15"><mxGeometry relative="1" as="geometry"/></mxCell><mxCell id="3" value="Deny patient, recomment other doctor's practice" style="ellipse;whiteSpace=wrap;html=1;" vertex="1" parent="1"><mxGeometry x="60" y="540" width="120" height="80" as="geometry"/></mxCell></root></mxGraphModel></diagram></mxfile>